<svg width="24" height="24" viewBox="0 0 24 24" fill="none" xmlns="http://www.w3.org/2000/svg">
<path d="M8.00017 16.2102L8.00017 7.79019C7.99969 7.45778 8.09336 7.13203 8.27033 6.85064C8.44731 6.56925 8.70035 6.34373 9.00017 6.20019C9.35592 6.03216 9.75171 5.96744 10.1424 6.01341C10.5332 6.05938 10.9031 6.21419 11.2102 6.46019L16.3102 10.6702C16.5008 10.8354 16.6537 11.0397 16.7585 11.2691C16.8633 11.4986 16.9175 11.7479 16.9175 12.0002C16.9175 12.2525 16.8633 12.5018 16.7585 12.7312C16.6537 12.9607 16.5008 13.165 16.3102 13.3302L11.2102 17.5402C10.9031 17.7862 10.5332 17.941 10.1424 17.987C9.75171 18.0329 9.35592 17.9682 9.00017 17.8002C8.70035 17.6567 8.44731 17.4311 8.27033 17.1497C8.09336 16.8684 7.99969 16.5426 8.00017 16.2102ZM10.0002 8.00019L10.0002 15.9002L14.8202 12.0002L10.0002 8.00019Z" fill="#C5C4C4"/>
</svg>
