<svg width="79" height="79" viewBox="0 0 79 79" fill="none" xmlns="http://www.w3.org/2000/svg">
<path d="M63.3645 9.05225H15.6353C11.9995 9.05225 9.052 11.9997 9.052 15.6356V63.3647C9.052 67.0006 11.9995 69.9481 15.6353 69.9481H63.3645C67.0004 69.9481 69.9478 67.0006 69.9478 63.3647V15.6356C69.9478 11.9997 67.0004 9.05225 63.3645 9.05225Z" stroke="white" stroke-width="2" stroke-linecap="round" stroke-linejoin="round"/>
<path d="M53.9011 32.0936C52.046 32.0936 50.2668 31.3566 48.9551 30.0449C47.6433 28.7331 46.9063 26.9539 46.9063 25.0988C46.9063 23.2437 46.1694 21.4645 44.8576 20.1527C43.5458 18.841 41.7667 18.104 39.9115 18.104H39.0886C37.2335 18.104 35.4543 18.841 34.1426 20.1527C32.8308 21.4645 32.0938 23.2437 32.0938 25.0988C32.0938 26.9539 31.3569 28.7331 30.0451 30.0449C28.7333 31.3566 26.9542 32.0936 25.099 32.0936C23.2439 32.0936 21.4648 32.8305 20.153 34.1423C18.8412 35.4541 18.1042 37.2332 18.1042 39.0884V39.9113C18.1042 41.7664 18.8412 43.5456 20.153 44.8574C21.4648 46.1691 23.2439 46.9061 25.099 46.9061C26.9542 46.9061 28.7333 47.643 30.0451 48.9548C31.3569 50.2666 32.0938 52.0457 32.0938 53.9009C32.0938 55.756 32.8308 57.5352 34.1426 58.8469C35.4543 60.1587 37.2335 60.8957 39.0886 60.8957H39.9115C41.7667 60.8957 43.5458 60.1587 44.8576 58.8469C46.1694 57.5352 46.9063 55.756 46.9063 53.9009C46.9063 52.0457 47.6433 50.2666 48.9551 48.9548C50.2668 47.643 52.046 46.9061 53.9011 46.9061C55.7563 46.9061 57.5354 46.1691 58.8472 44.8574C60.159 43.5456 60.8959 41.7664 60.8959 39.9113V39.0884C60.8959 37.2332 60.159 35.4541 58.8472 34.1423C57.5354 32.8305 55.7563 32.0936 53.9011 32.0936Z" stroke="white" stroke-width="2" stroke-linecap="round" stroke-linejoin="round"/>
<path d="M54.9214 44.4457C53.6098 43.1339 52.873 41.3549 52.873 39.4999C52.873 37.645 53.6098 35.866 54.9214 34.5542C56.233 33.2425 56.9698 31.4635 56.9698 29.6085C56.9698 27.7535 56.233 25.9745 54.9214 24.6628L54.3388 24.0801C53.027 22.7686 51.248 22.0317 49.393 22.0317C47.5381 22.0317 45.7591 22.7686 44.4473 24.0801C43.7978 24.7298 43.0266 25.2452 42.1779 25.5968C41.3291 25.9484 40.4195 26.1293 39.5008 26.1293C38.5821 26.1293 37.6724 25.9484 36.8237 25.5968C35.9749 25.2452 35.2038 24.7298 34.5542 24.0801C33.2425 22.7686 31.4635 22.0317 29.6085 22.0317C27.7535 22.0317 25.9745 22.7686 24.6628 24.0801L24.0801 24.6611C22.7686 25.9729 22.0317 27.7519 22.0317 29.6068C22.0317 31.4618 22.7686 33.2408 24.0801 34.5526C24.7298 35.2021 25.2452 35.9733 25.5968 36.822C25.9484 37.6707 26.1293 38.5804 26.1293 39.4991C26.1293 40.4178 25.9484 41.3275 25.5968 42.1762C25.2452 43.025 24.7298 43.7961 24.0801 44.4457C22.7686 45.7574 22.0317 47.5364 22.0317 49.3914C22.0317 51.2464 22.7686 53.0254 24.0801 54.3371L24.6611 54.9198C25.9729 56.2313 27.7519 56.9681 29.6068 56.9681C31.4618 56.9681 33.2408 56.2313 34.5526 54.9198C35.2021 54.2701 35.9733 53.7547 36.822 53.4031C37.6707 53.0515 38.5804 52.8705 39.4991 52.8705C40.4178 52.8705 41.3275 53.0515 42.1762 53.4031C43.025 53.7547 43.7961 54.2701 44.4457 54.9198C45.7574 56.2313 47.5364 56.9681 49.3914 56.9681C51.2464 56.9681 53.0254 56.2313 54.3371 54.9198L54.9198 54.3388C56.2313 53.027 56.9681 51.248 56.9681 49.393C56.9681 47.5381 56.2313 45.7591 54.9198 44.4473" stroke="white" stroke-width="2" stroke-linecap="round" stroke-linejoin="round"/>
</svg>
