<svg width="79" height="79" viewBox="0 0 79 79" fill="none" xmlns="http://www.w3.org/2000/svg">
<path d="M39.5 6.5835C21.3498 6.5835 6.58337 21.3499 6.58337 39.5002C6.58337 57.6504 21.3498 72.4168 39.5 72.4168C57.6503 72.4168 72.4167 57.6504 72.4167 39.5002C72.4167 21.3499 57.6503 6.5835 39.5 6.5835ZM39.5 65.8335C24.9805 65.8335 13.1667 54.0197 13.1667 39.5002C13.1667 24.9806 24.9805 13.1668 39.5 13.1668C54.0196 13.1668 65.8334 24.9806 65.8334 39.5002C65.8334 54.0197 54.0196 65.8335 39.5 65.8335Z" fill="white"/>
<path d="M27.9791 36.2085C30.706 36.2085 32.9166 33.9979 32.9166 31.271C32.9166 28.5441 30.706 26.3335 27.9791 26.3335C25.2522 26.3335 23.0416 28.5441 23.0416 31.271C23.0416 33.9979 25.2522 36.2085 27.9791 36.2085Z" fill="white"/>
<path d="M50.9978 36.1624C53.712 36.1624 55.9123 33.9621 55.9123 31.248C55.9123 28.5338 53.712 26.3335 50.9978 26.3335C48.2837 26.3335 46.0834 28.5338 46.0834 31.248C46.0834 33.9621 48.2837 36.1624 50.9978 36.1624Z" fill="white"/>
<path d="M39.5 59.2498C55.9583 59.2498 59.25 42.7915 59.25 42.7915H19.75C19.75 42.7915 23.0417 59.2498 39.5 59.2498Z" fill="white"/>
</svg>
