<svg width="79" height="79" viewBox="0 0 79 79" fill="none" xmlns="http://www.w3.org/2000/svg">
<g clip-path="url(#clip0_146_535)">
<path d="M57.5142 22.9517L60.9858 26.4233L32.0938 55.3154L18.0142 41.2358L21.4858 37.7642L32.0938 48.3721L57.5142 22.9517ZM39.5 0C43.126 0 46.6234 0.462891 49.9922 1.38867C53.361 2.31445 56.5112 3.63883 59.4429 5.36182C62.3745 7.0848 65.0361 9.14209 67.4277 11.5337C69.8193 13.9253 71.8766 16.5998 73.5996 19.5571C75.3226 22.5145 76.647 25.6647 77.5728 29.0078C78.4985 32.3509 78.9743 35.8483 79 39.5C79 43.126 78.5371 46.6234 77.6113 49.9922C76.6855 53.361 75.3612 56.5112 73.6382 59.4429C71.9152 62.3745 69.8579 65.0361 67.4663 67.4277C65.0747 69.8193 62.4002 71.8766 59.4429 73.5996C56.4855 75.3226 53.3353 76.647 49.9922 77.5728C46.6491 78.4985 43.1517 78.9743 39.5 79C35.874 79 32.3766 78.5371 29.0078 77.6113C25.639 76.6855 22.4888 75.3612 19.5571 73.6382C16.6255 71.9152 13.9639 69.8579 11.5723 67.4663C9.18066 65.0747 7.12337 62.4002 5.40039 59.4429C3.67741 56.4855 2.35303 53.3481 1.42725 50.0308C0.501465 46.7134 0.0257161 43.2031 0 39.5C0 35.874 0.462891 32.3766 1.38867 29.0078C2.31445 25.639 3.63883 22.4888 5.36182 19.5571C7.0848 16.6255 9.14209 13.9639 11.5337 11.5723C13.9253 9.18066 16.5998 7.12337 19.5571 5.40039C22.5145 3.67741 25.6519 2.35303 28.9692 1.42725C32.2866 0.501465 35.7969 0.0257161 39.5 0ZM39.5 74.0625C42.6631 74.0625 45.7104 73.651 48.6421 72.8281C51.5737 72.0052 54.3254 70.848 56.897 69.3564C59.4686 67.8649 61.8088 66.0519 63.9175 63.9175C66.0262 61.783 67.8263 59.4557 69.3179 56.9355C70.8094 54.4154 71.9795 51.6637 72.8281 48.6807C73.6768 45.6976 74.0882 42.6374 74.0625 39.5C74.0625 36.3369 73.651 33.2896 72.8281 30.3579C72.0052 27.4263 70.848 24.6746 69.3564 22.103C67.8649 19.5314 66.0519 17.1912 63.9175 15.0825C61.783 12.9738 59.4557 11.1737 56.9355 9.68213C54.4154 8.19059 51.6637 7.02051 48.6807 6.17188C45.6976 5.32324 42.6374 4.91178 39.5 4.9375C36.3369 4.9375 33.2896 5.34896 30.3579 6.17188C27.4263 6.99479 24.6746 8.15202 22.103 9.64355C19.5314 11.1351 17.1912 12.9481 15.0825 15.0825C12.9738 17.217 11.1737 19.5443 9.68213 22.0645C8.19059 24.5846 7.02051 27.3363 6.17188 30.3193C5.32324 33.3024 4.91178 36.3626 4.9375 39.5C4.9375 42.6631 5.34896 45.7104 6.17188 48.6421C6.99479 51.5737 8.15202 54.3254 9.64355 56.897C11.1351 59.4686 12.9481 61.8088 15.0825 63.9175C17.217 66.0262 19.5443 67.8263 22.0645 69.3179C24.5846 70.8094 27.3363 71.9795 30.3193 72.8281C33.3024 73.6768 36.3626 74.0882 39.5 74.0625Z" fill="white"/>
</g>
<defs>
<clipPath id="clip0_146_535">
<rect width="79" height="79" fill="white"/>
</clipPath>
</defs>
</svg>
