<svg width="1131" height="106" viewBox="0 0 1131 106" fill="none" xmlns="http://www.w3.org/2000/svg">
<path d="M7.26953e-05 103.39V2.56548H20.5255V86.262H71.5617V103.39H7.26953e-05ZM86.2623 103.39V1.73337H161.638V18.9303H106.788V41.4667H157.824V58.5943H106.788V86.262H163.579V103.39H86.2623ZM203.867 103.39V18.9303H173.703V1.73337H254.487V18.9303H224.393V103.39H203.867ZM267.177 2.01074H286.662V15.9486C286.662 21.5885 286.177 26.0495 285.206 29.3317C284.235 32.5677 282.386 35.4801 279.659 38.0689C276.978 40.6577 273.557 42.6917 269.396 44.1711L265.582 36.1273C269.512 34.8329 272.309 33.0531 273.973 30.7879C275.637 28.5227 276.515 25.4254 276.608 21.496H267.177V2.01074ZM302.126 70.3132L322.097 68.3716C323.299 75.0747 325.725 79.9981 329.378 83.1416C333.076 86.2851 338.045 87.8569 344.286 87.8569C350.897 87.8569 355.866 86.47 359.195 83.6963C362.57 80.8764 364.257 77.5942 364.257 73.8497C364.257 71.4458 363.54 69.4118 362.107 67.7475C360.72 66.0371 358.27 64.5578 354.757 63.3096C352.353 62.4775 346.875 60.9982 338.323 58.8717C327.32 56.1442 319.6 52.7926 315.162 48.817C308.921 43.2234 305.801 36.4047 305.801 28.3609C305.801 23.1834 307.257 18.3525 310.17 13.8683C313.128 9.33794 317.358 5.89392 322.859 3.53627C328.407 1.17863 335.087 -0.000198983 342.899 -0.000198983C355.658 -0.000198983 365.251 2.79662 371.677 8.39026C378.149 13.9839 381.546 21.4498 381.87 30.7879L361.344 31.6894C360.466 26.4656 358.571 22.7211 355.658 20.4559C352.792 18.1445 348.47 16.9887 342.691 16.9887C336.728 16.9887 332.059 18.2138 328.684 20.6639C326.511 22.2357 325.425 24.3391 325.425 26.9741C325.425 29.378 326.442 31.4351 328.476 33.1456C331.065 35.3183 337.352 37.5835 347.337 39.9412C357.323 42.2988 364.696 44.7489 369.458 47.2915C374.265 49.7878 378.01 53.2318 380.691 57.6235C383.419 61.969 384.782 67.3546 384.782 73.7803C384.782 79.6051 383.164 85.0601 379.928 90.1452C376.692 95.2303 372.116 99.0211 366.198 101.517C360.281 103.968 352.908 105.193 344.078 105.193C331.227 105.193 321.357 102.234 314.469 96.3167C307.581 90.3532 303.467 81.6854 302.126 70.3132ZM506.617 66.014L526.519 72.3242C523.468 83.419 518.382 91.6707 511.263 97.0795C504.19 102.442 495.199 105.123 484.289 105.123C470.79 105.123 459.695 100.523 451.004 91.324C442.314 82.0783 437.968 69.458 437.968 53.463C437.968 36.5434 442.337 23.4145 451.074 14.0764C459.811 4.69199 471.299 -0.000198983 485.537 -0.000198983C497.973 -0.000198983 508.073 3.67496 515.84 11.0253C520.463 15.3707 523.93 21.6116 526.241 29.7478L505.924 34.6018C504.722 29.3317 502.202 25.1712 498.366 22.1201C494.575 19.069 489.952 17.5435 484.497 17.5435C476.962 17.5435 470.836 20.2478 466.121 25.6566C461.452 31.0653 459.118 39.8256 459.118 51.9374C459.118 64.7889 461.429 73.9421 466.052 79.3971C470.675 84.8521 476.684 87.5795 484.081 87.5795C489.536 87.5795 494.228 85.846 498.157 82.3788C502.087 78.9117 504.907 73.4568 506.617 66.014ZM540.04 53.1856C540.04 42.8304 541.589 34.1395 544.686 27.1128C546.998 21.9352 550.141 17.2892 554.117 13.1749C558.139 9.06057 562.531 6.00949 567.292 4.02167C573.625 1.34043 580.929 -0.000198983 589.204 -0.000198983C604.182 -0.000198983 616.155 4.64576 625.124 13.9377C634.138 23.2296 638.646 36.1504 638.646 52.7002C638.646 69.1113 634.185 81.9628 625.262 91.2547C616.34 100.5 604.413 105.123 589.482 105.123C574.365 105.123 562.346 100.523 553.424 91.324C544.501 82.0783 540.04 69.3655 540.04 53.1856ZM561.19 52.4922C561.19 64.003 563.848 72.7402 569.164 78.7037C574.481 84.6209 581.23 87.5795 589.412 87.5795C597.595 87.5795 604.298 84.644 609.522 78.773C614.792 72.8558 617.427 64.003 617.427 52.2148C617.427 40.5652 614.861 31.8743 609.73 26.142C604.645 20.4096 597.872 17.5435 589.412 17.5435C580.953 17.5435 574.134 20.4559 568.956 26.2807C563.779 32.0592 561.19 40.7964 561.19 52.4922ZM654.941 103.39V1.73337H674.912L716.517 69.6198V1.73337H735.587V103.39H714.992L674.01 37.0981V103.39H654.941ZM757.568 103.39V1.73337H777.539L819.144 69.6198V1.73337H838.214V103.39H817.619L776.637 37.0981V103.39H757.568ZM859.987 103.39V1.73337H935.363V18.9303H880.513V41.4667H931.549V58.5943H880.513V86.262H937.304V103.39H859.987ZM1019.75 66.014L1039.65 72.3242C1036.6 83.419 1031.52 91.6707 1024.4 97.0795C1017.33 102.442 1008.33 105.123 997.424 105.123C983.926 105.123 972.831 100.523 964.14 91.324C955.449 82.0783 951.103 69.458 951.103 53.463C951.103 36.5434 955.472 23.4145 964.209 14.0764C972.946 4.69199 984.434 -0.000198983 998.672 -0.000198983C1011.11 -0.000198983 1021.21 3.67496 1028.98 11.0253C1033.6 15.3707 1037.07 21.6116 1039.38 29.7478L1019.06 34.6018C1017.86 29.3317 1015.34 25.1712 1011.5 22.1201C1007.71 19.069 1003.09 17.5435 997.632 17.5435C990.097 17.5435 983.972 20.2478 979.257 25.6566C974.587 31.0653 972.253 39.8256 972.253 51.9374C972.253 64.7889 974.564 73.9421 979.187 79.3971C983.81 84.8521 989.82 87.5795 997.216 87.5795C1002.67 87.5795 1007.36 85.846 1011.29 82.3788C1015.22 78.9117 1018.04 73.4568 1019.75 66.014ZM1080.22 103.39V18.9303H1050.06V1.73337H1130.84V18.9303H1100.74V103.39H1080.22Z" fill="#676A6A"/>
</svg>
